HIERARCHY
ROOT Hips
{
	OFFSET 0.00000 0.00000 0.00000
	CHANNELS 6 Xposition Yposition Zposition Yrotation Zrotation Xrotation 
	JOINT Lumbar
	{
		OFFSET 0 0 0
		CHANNELS 3 Zrotation Xrotation Yrotation
		JOINT Neck
		{
			OFFSET 0.00 0.2701 0.00
			CHANNELS 3 Zrotation Xrotation Yrotation
			End Site
			{
				OFFSET 0.00 0.1379 0.00
			}
		}
		JOINT RightShoulder
		{
			OFFSET 0.0119 0.2289 0.1181
			CHANNELS 3 Zrotation Xrotation Yrotation
			JOINT RightElbow
			{
				OFFSET 0.00 -0.1475 0.00
				CHANNELS 2 Zrotation Yrotation
				JOINT RightWrist
				{
					OFFSET 0.00 -0.1605 0.00
					CHANNELS 2 Zrotation Xrotation
					End Site
					{
						OFFSET 0.0040 -0.1068 0.0006
					}
				}
			}
		}
		JOINT LeftShoulder
		{
			OFFSET 0.0119 0.2289 -0.1181
			CHANNELS 3 Zrotation Xrotation Yrotation
			JOINT LeftElbow
			{
				OFFSET 0.00 -0.1475 0.00
				CHANNELS 2 Zrotation Yrotation
				JOINT LeftWrist
				{
					OFFSET 0.00 -0.1605 0.00
					CHANNELS 2 Zrotation Xrotation
					End Site
					{
						OFFSET 0.0040 -0.1068 -0.0006
					}
				}
			}
		}
	}
	JOINT RightHip
	{
		OFFSET 0.0316 -0.0424 0.0458
		CHANNELS 3 Zrotation Xrotation Yrotation
		JOINT RightKnee
		{
			OFFSET 0.00 -0.2438 0.00
			CHANNELS 1 Zrotation
			JOINT RightAnkle
			{
				OFFSET 0.00 -0.2449 0.00
				CHANNELS 3 Zrotation Xrotation Yrotation
				End Site
				{
					OFFSET 0.1237 -0.0542 0.0051
				}
			}
		}
	}
	JOINT LeftHip
	{
		OFFSET 0.0316 -0.0424 -0.0458
		CHANNELS 3 Zrotation Xrotation Yrotation
		JOINT LeftKnee
		{
			OFFSET 0.00 -0.2438 0.00
			CHANNELS 1 Zrotation
			JOINT LeftAnkle
			{
				OFFSET 0.00 -0.2449 0.00
				CHANNELS 3 Zrotation Xrotation Yrotation
				End Site
				{
					OFFSET 0.1237 -0.0542 -0.0051
				}
			}
		}
	}
}
MOTION
Frames: 22
Frame Time: 0.02
-0.14305 0.00383 0.07337 -186.6944 -44.57703 -8.39729 36.7494 -0.83058 10.05978 7.35251 -2.70938 -2.11249 104.4142 -2.91249 55.6299 15.99262 88.01605 32.89264 -2.3104 61.76555 34.42734 -48.00982 55.35004 -60.38793 15.85737 7.43373 39.56275 -7.37267 -8.73055 -21.86896 -7.76341 -1.37058 -2.96422 56.7299 6.91397 4.31549 -27.90422 -6.74635 1.04343 2.76877
-0.14334 0.00408 0.07339 -186.79071 -44.50427 -8.42101 36.95634 -0.54345 10.11395 7.19274 -1.44839 -2.11252 103.7354 -1.95338 55.63887 16.25012 87.61117 33.71463 -2.36714 60.94792 35.65357 -48.07547 56.77406 -60.32691 15.45504 7.53527 39.55527 -7.40223 -8.6119 -21.95292 -7.79606 -1.34431 -2.95246 56.57371 6.90368 4.18849 -27.84785 -6.74292 1.06418 2.77675
-0.1436 0.00445 0.07339 -186.9603 -44.49922 -8.52773 37.1654 -0.23697 10.14226 6.93404 -0.14407 -2.11256 103.01543 -0.98257 55.63462 16.82589 86.94038 34.73151 -2.45138 59.99591 37.14837 -48.09758 58.71289 -60.29907 15.03481 7.63857 39.60398 -7.38042 -8.48584 -21.95766 -7.84134 -1.3092 -2.93679 56.50514 6.94147 4.03153 -27.78161 -6.74646 1.08586 2.78459
-0.14387 0.00476 0.07341 -187.09974 -44.468 -8.59757 37.37082 0.0597 10.18463 6.71718 1.13414 -2.11259 102.28618 -0.06056 55.6151 17.3667 86.43392 35.64461 -2.51829 59.08845 38.53575 -48.1231 60.456 -60.30884 14.61213 7.73094 39.63104 -7.38274 -8.36739 -21.99457 -7.88075 -1.27803 -2.92279 56.40266 6.95906 3.89679 -27.72054 -6.74734 1.10621 2.79215
-0.14416 0.00509 0.0734 -187.22883 -44.41773 -8.66541 37.5882 0.36108 10.21684 6.51145 2.44308 -2.11262 101.67253 1.04935 55.68439 17.45388 85.74269 36.63115 -2.60599 58.24497 39.8715 -48.21401 62.05691 -60.10631 14.23017 7.86531 39.64252 -7.38153 -8.233 -22.04706 -7.92106 -1.24672 -2.90901 56.27554 6.97116 3.72667 -27.6565 -6.74633 1.13034 2.80114
-0.1444 0.00542 0.07344 -187.39537 -44.42354 -8.7566 37.78059 0.65697 10.26447 6.25909 3.69593 -2.11265 100.80934 1.7689 55.56573 18.55846 85.37038 37.50547 -2.65706 57.2349 41.37287 -48.15491 64.07053 -60.34919 13.76117 7.91244 39.69992 -7.37565 -8.12976 -22.04849 -7.96242 -1.21373 -2.89392 56.2212 7.0053 3.62231 -27.59647 -6.75084 1.14684 2.80714
-0.14451 0.00573 0.07359 -187.65183 -44.56206 -8.89122 37.9075 0.93428 10.35796 5.91127 4.79487 -2.11268 99.26838 1.40815 54.93568 22.38704 85.98291 38.04755 -2.59689 55.84383 43.28793 -47.75435 67.0771 -61.82123 13.04967 7.7252 39.86485 -7.3684 -8.10848 -21.92855 -8.00271 -1.17904 -2.87628 56.33718 7.0914 3.71263 -27.54836 -6.76856 1.14187 2.80487
-0.14457 0.00605 0.07379 -187.94211 -44.75565 -9.04639 38.00838 1.20501 10.46842 5.51866 5.8331 -2.11271 97.47912 0.65317 54.11754 27.22738 86.9183 38.46479 -2.49954 54.28369 45.35504 -47.19522 70.48148 -63.73591 12.25274 7.44983 40.07488 -7.35837 -8.1194 -21.76 -8.04367 -1.14293 -2.85748 56.52498 7.19733 3.8692 -27.50491 -6.79163 1.12919 2.79961
-0.14465 0.00636 0.07397 -188.21385 -44.92751 -9.19242 38.11856 1.47798 10.57315 5.14104 6.89145 -2.11274 95.80151 0.07808 53.38122 31.60944 87.68173 38.92095 -2.4212 52.77063 47.33697 -46.66784 73.71506 -65.44402 11.4999 7.20938 40.2677 -7.3504 -8.11928 -21.61367 -8.08488 -1.10699 -2.83916 56.68566 7.29207 3.99134 -27.46032 -6.8124 1.12019 2.79579
-0.14475 0.00669 0.07413 -188.50226 -45.08765 -9.34053 38.23965 1.7552 10.66867 4.7826 7.98385 -2.11277 94.12225 -0.49848 52.65474 36.00104 88.54501 39.45709 -2.33449 51.37355 49.39658 -46.30427 76.92734 -67.18352 10.7248 6.98719 40.44866 -7.33756 -8.10441 -21.46408 -8.12438 -1.07256 -2.82084 56.82584 7.39756 4.12989 -27.41122 -6.83281 1.11061 2.79167
-0.14479 0.00699 0.07435 -188.76216 -45.28459 -9.48812 38.33163 2.02125 10.78765 4.37482 8.98914 -2.1128 92.39455 -1.16714 51.86972 40.60302 89.27707 39.7971 -2.25655 49.70255 51.32663 -45.56833 80.26852 -68.95323 9.97519 6.71034 40.66423 -7.33453 -8.1272 -21.31071 -8.16723 -1.035 -2.80239 57.02497 7.48491 4.25138 -27.37281 -6.85521 1.1002 2.78739
-0.14463 0.00726 0.07477 -188.94186 -45.56762 -9.62872 38.35097 2.26203 10.96841 3.84279 9.77809 -2.11283 90.53952 -1.98248 50.91456 45.58478 89.59771 39.60162 -2.20722 47.26566 52.86128 -43.7916 83.89059 -70.77576 9.32461 6.26634 40.96453 -7.36244 -8.25278 -21.15978 -8.2209 -0.98708 -2.78295 57.36587 7.51528 4.30048 -27.36237 -6.88109 1.09119 2.78418
-0.14441 0.00751 0.07526 -189.09013 -45.88572 -9.76773 38.34157 2.49084 11.17221 3.2631 10.47919 -2.11287 88.6557 -2.87913 49.91772 50.73155 89.77049 39.21651 -2.16875 44.56912 54.25789 -41.65454 87.62072 -72.59905 8.70165 5.7769 41.2977 -7.39999 -8.41384 -21.00699 -8.27753 -0.93649 -2.7636 57.76371 7.52666 4.33136 -27.36267 -6.90884 1.08135 2.7808
-0.14421 0.00776 0.07572 -189.2478 -46.18892 -9.90746 38.34452 2.72255 11.36471 2.70487 11.2145 -2.1129 86.8196 -3.74582 48.9752 55.77258 89.99324 38.93337 -2.12824 42.02557 55.71796 -39.71751 91.28551 -74.37041 8.06065 5.33368 41.61546 -7.43127 -8.55439 -20.85478 -8.33161 -0.88851 -2.74479 58.13744 7.54802 4.3775 -27.35836 -6.93623 1.07061 2.77692
-0.14403 0.00803 0.07618 -189.4269 -46.49016 -10.04817 38.34991 2.96522 11.56088 2.14526 11.97302 -2.11293 84.82439 -4.59637 47.8748 60.98503 90.30156 38.57975 -2.0742 39.32842 57.18494 -37.62545 95.03763 -76.37362 7.43841 4.78155 41.93708 -7.47032 -8.71493 -20.70178 -8.39086 -0.83454 -2.72346 58.50674 7.56512 4.39905 -27.353 -6.96195 1.06469 2.77518
-0.1438 0.00825 0.07665 -189.55395 -46.80252 -10.18595 38.34332 3.18175 11.75514 1.57855 12.66165 -2.11297 83.16225 -5.49519 47.09825 65.85875 90.39017 38.32895 -2.05145 36.89161 58.59711 -35.76818 98.62254 -77.89009 6.78652 4.44399 42.25755 -7.49562 -8.84138 -20.55084 -8.43998 -0.79245 -2.70743 58.89726 7.58541 4.46336 -27.35239 -6.99126 1.04903 2.7692
-0.1435 0.00836 0.07718 -189.5404 -47.14138 -10.31774 38.31421 3.33355 11.93407 0.99799 13.19117 -2.113 82.38252 -6.50029 47.2047 69.81444 89.92692 38.41277 -2.11197 35.24058 59.93844 -34.68918 101.76387 -78.04424 6.0317 4.73293 42.56933 -7.47993 -8.86887 -20.4045 -8.46085 -0.78368 -2.70603 59.3368 7.62685 4.67898 -27.36162 -7.03208 1.00313 2.74977
-0.14315 0.00842 0.07772 -189.47623 -47.48905 -10.4462 38.27351 3.45859 12.11085 0.41348 13.65118 -2.11303 81.94786 -7.54953 47.64239 73.40604 89.24362 38.60594 -2.20378 33.86132 61.21985 -33.85285 104.72177 -77.70957 5.24944 5.23543 42.87809 -7.45021 -8.85993 -20.2609 -8.47133 -0.787 -2.70997 59.79446 7.67078 4.93324 -27.37535 -7.07603 0.9481 2.7264
-0.14283 0.0085 0.07825 -189.43799 -47.82963 -10.57494 38.23594 3.59299 12.29165 -0.1654 14.13545 -2.11306 81.38641 -8.5825 47.94484 77.12337 88.6459 38.7474 -2.2819 32.3556 62.49728 -32.87767 107.73367 -77.6084 4.48924 5.62569 43.1864 -7.4274 -8.86504 -20.11719 -8.4863 -0.78487 -2.71146 60.24073 7.70817 5.14973 -27.3874 -7.11712 0.8997 2.70607
-0.1425 0.00859 0.0788 -189.38621 -48.18478 -10.70883 38.20637 3.73897 12.46112 -0.76307 14.64837 -2.11309 80.69976 -9.6066 48.18556 81.02142 88.09983 38.89257 -2.35855 30.85088 63.90181 -32.0066 110.87784 -77.45995 3.68843 6.07882 43.50372 -7.40273 -8.88209 -19.96827 -8.50239 -0.78242 -2.71301 60.70275 7.76696 5.44811 -27.39826 -7.16425 0.84103 2.68056
-0.14217 0.00865 0.07932 -189.35118 -48.51084 -10.83123 38.15779 3.85443 12.65252 -1.32077 15.08526 -2.11311 80.3528 -10.6535 48.62854 84.44611 87.40121 39.05609 -2.44505 29.4149 65.02909 -30.98579 113.69612 -77.29341 2.96663 6.45182 43.80096 -7.37842 -8.86503 -19.83128 -8.51361 -0.78358 -2.71573 61.13503 7.78299 5.58887 -27.41255 -7.19965 0.80132 2.66474
-0.14184 0.00864 0.0798 -189.37343 -48.75723 -10.92239 38.05954 3.89372 12.91216 -1.7765 15.338 -2.11314 80.88878 -11.79401 49.59636 86.7179 86.29 39.26481 -2.55516 28.08124 65.40567 -29.45512 115.70197 -77.19963 2.45921 6.55597 44.04421 -7.35877 -8.76366 -19.72338 -8.51422 -0.79131 -2.72017 61.48396 7.67192 5.25449 -27.43485 -7.20087 0.81852 2.67822
